{"title":"James Horner - Star Trek II The Wrath Of Khan [EAC-FLAC] [RePoPo","uid":4873503,"size":239190381,"categoryP":"audio","categoryS":"flac","magnet":"?xt=urn:btih:2fe4188738a86818a13f1e728872eeaa7ed72de8&amp;dn=James+Horner+-+Star+Trek+II+The+Wrath+Of+Khan+%5BEAC-FLAC%5D+%5BRePoPo&amp;tr=udp%3A%2F%2Ftracker.openbittorrent.com%3A80&amp;tr=udp%3A%2F%2Fopen.demonii.com%3A1337&amp;tr=udp%3A%2F%2Ftracker.coppersurfer.tk%3A6969&amp;tr=udp%3A%2F%2Fexodus.desync.com%3A6969","seeders":5,"leechers":0,"uploader":"repopo","files":-1,"time":1240971891,"description":"*******************************************************************************\n                 James Horner - Star Trek II The Wrath Of Khan\n*******************************************************************************\n\n\n01. Main Title    [0:03:08.67]\n02. Surprise Attack    [0:05:08.15]\n03. Spock    [0:01:13.23]\n04. Kirk's Explosive Reply    [0:04:02.62]\n05. Khan's Pets    [0:04:19.48]\n06. Enterprise Clears Moorings    [0:03:36.07]\n07. Battle in the Mutara Nebula    [0:08:05.33]\n08. Genesis Countdown    [0:06:36.45]\n09. Epilogue / End Title    [0:08:43.42]\n\n\n-------------------------------------------------------------------------------\n\nReview\tby Jason Ankeny\n\nTaking the musical reins from the legendary Jerry Goldsmith, James Horner \nboarded the Starship Enterprise to deliver what would prove to be his \nbreakthrough score. A surprisingly dark, emotional effort some distance removed \nfrom Goldsmith's utopian fanfare, Star Trek II: The Wrath of Khan was \ninstrumental in steering the franchise into more complex territory. Horner's \nlucid melodies and sweeping orchestral arrangements possess a sense of genuine \ndanger and malice long absent from Star Trek's musical backdrop, climaxing in \nthe profoundly emotional catharsis of &quot;Spock.&quot; His efforts lend Trek creator \nGene Roddenberry's vision a newfound gravitas. \n\n-------------------------------------------------------------------------------\n\nExact Audio Copy V0.99 prebeta 4 from 23. January 2008\n\nEAC extraction logfile from 29. April 2009, 2:18\n\nJames Horner / Star Trek II : The Wrath of Khan\n\nUsed drive  : HL-DT-STDVD-RAM GSA-H55N   Adapter: 3  ID: 1\n\nRead mode               : Secure\nUtilize accurate stream : Yes\nDefeat audio cache      : No\nMake use of C2 pointers : No\n\nRead offset correction                      : 102\nOverread into Lead-In and Lead-Out          : No\nFill up missing offset samples with silence : Yes\nDelete leading and trailing silent blocks   : No\nNull samples used in CRC calculations       : No\nUsed interface                              : Native Win32 interface for Win NT \n&amp; 2000\nGap handling                                : Appended to previous track\n\nUsed output format              : User Defined Encoder\nSelected bitrate                : 1024 kBit/s\nQuality                         : High\nAdd ID3 tag                     : Yes\nCommand line compressor         : F:Archivos de programaExact Audio \nCopyFLACFLAC.EXE\nAdditional command line options : -6 -V -T &quot;ARTIST=%a&quot; -T &quot;TITLE=%t&quot; -T \n&quot;ALBUM=%g&quot; -T &quot;DATE=%y&quot; -T &quot;TRACKNUMBER=%n&quot; -T &quot;GENRE=%m&quot; -T &quot;COMMENT=%e&quot; %s -o \n%d\n\n\nTOC of the extracted CD\n\n     Track |   Start  |  Length  | Start sector | End sector \n    ---------------------------------------------------------\n        1  |  0:00.00 |  3:08.67 |         0    |    14166   \n        2  |  3:08.67 |  5:08.15 |     14167    |    37281   \n        3  |  8:17.07 |  1:13.23 |     37282    |    42779   \n        4  |  9:30.30 |  4:02.62 |     42780    |    60991   \n        5  | 13:33.17 |  4:19.48 |     60992    |    80464   \n        6  | 17:52.65 |  3:36.07 |     80465    |    96671   \n        7  | 21:28.72 |  8:05.33 |     96672    |   133079   \n        8  | 29:34.30 |  6:36.45 |    133080    |   162824   \n        9  | 36:11.00 |  8:43.42 |    162825    |   202091   \n\n-------------------------------------------------------------------------------\n-------------------------------------------------------------------------------","torrent":{"xt":"urn:btih:2fe4188738a86818a13f1e728872eeaa7ed72de8","amp;dn":"James+Horner+-+Star+Trek+II+The+Wrath+Of+Khan+%5BEAC-FLAC%5D+%5BRePoPo","amp;tr":["udp%3A%2F%2Ftracker.openbittorrent.com%3A80","udp%3A%2F%2Fopen.demonii.com%3A1337","udp%3A%2F%2Ftracker.coppersurfer.tk%3A6969","udp%3A%2F%2Fexodus.desync.com%3A6969"],"infoHash":"2fe4188738a86818a13f1e728872eeaa7ed72de8","infoHashBuffer":{"type":"Buffer","data":[47,228,24,135,56,168,104,24,161,63,30,114,136,114,238,170,126,215,45,232]},"announce":[],"urlList":[]}}